<?xml version="1.0" encoding="utf-8"?>
<svg version="1.1" id="Warstwa_1" xmlns="http://www.w3.org/2000/svg" xmlns:xlink="http://www.w3.org/1999/xlink" x="0px" y="0px"
	 viewBox="0 0 258.6 250.3" style="enable-background:new 0 0 258.6 250.3;" xml:space="preserve">
<style type="text/css">
	.st0{fill:#878787;}
	.st1{fill-rule:evenodd;clip-rule:evenodd;}
</style>
<g>
	<g>
		<path class="st0" d="M21,130.7l0.1-12.2c0-0.6,0-2.1,0-4.3c-0.4,2.1-0.8,3.6-1,4.4l-3,12.1h-5.5l-3.1-11.9c-0.3-1.3-0.6-2.9-1-4.7
			c0.1,2.1,0.1,3.7,0.1,4.6v12H0.6v-24.8h9.5l3.4,12.4c0.1,0.3,0.3,1.5,0.8,3.6c0.3-1.8,0.6-3,0.8-3.6l3.5-12.4h9.5v24.8H21z"/>
		<path class="st0" d="M33.4,110.5v-5.2h7.2v5.2H33.4z M33.4,130.7v-18.3h7.2v18.3H33.4z"/>
		<path class="st0" d="M57.8,130.7v-9.5c0-2.5-0.5-3.7-2.4-3.7c-1.8,0-2.7,1.2-2.7,3.7v9.5h-7.2v-18.3H52v2.7
			c1.7-2.1,3.7-3.2,6.3-3.2c2.2,0,3.9,0.8,5.1,2.2c1.4,1.7,1.5,3.9,1.5,7.1v9.5H57.8z"/>
		<path class="st0" d="M69.8,110.5v-5.2H77v5.2H69.8z M69.8,130.7v-18.3H77v18.3H69.8z"/>
		<path class="st0" d="M89.9,131.4c-5.8,0-8.9-2.1-9.2-6.4h7c0,1.6,0.8,2.3,2.3,2.3c1.5,0,2.3-0.6,2.3-1.5c0-1.3-1-1.4-3-1.9
			c-5.6-1.2-8.1-2.2-8.1-6.1c0-3.9,3-6,8.9-6c5.4,0,8.3,2,8.8,5.8h-6.4c-0.1-1.1-1-1.8-2.3-1.8c-1.3,0-1.9,0.5-1.9,1.3
			c0,1.3,1.2,1.3,3.4,1.8c5.4,1.2,7.8,2.2,7.8,6.2C99.5,129.2,96.2,131.4,89.9,131.4z"/>
		<path class="st0" d="M110.2,131c-4.4,0-6.1-1.3-6.1-5.2v-9.2h-2.5v-4.2h2.5v-5.7h7.1v5.7h3.4v4.2h-3.4v7.3c0,1.3,0.7,1.7,2.4,1.7
			c0.3,0,0.6,0,1,0v5.3C113.1,131,111.6,131,110.2,131z"/>
		<path class="st0" d="M124.3,123.2c0.1,2.3,1.3,3.7,3.3,3.7c1.4,0,2.3-0.6,2.7-1.5h6.8c-1,4-4.4,6.1-9.9,6.1
			c-6.2,0-10.1-3.8-10.1-9.7c0-6.1,3.9-10,10.3-10c6.4,0,10.2,4.1,10.2,11v0.4H124.3z M127.4,116.1c-1.9,0-3,1.2-3.1,3.4h6.4
			C130.5,117.2,129.4,116.1,127.4,116.1z"/>
		<path class="st0" d="M152.1,119.1c-2.9,0-4.2,1.3-4.2,4.1v7.5h-7.2v-18.3h6.6v3.3c0.9-2.7,2.7-3.8,5.6-3.8h0.6v7.3
			C153,119.1,152.6,119.1,152.1,119.1z"/>
		<path class="st0" d="M165.1,131.4c-5.8,0-8.9-2.1-9.2-6.4h7c0,1.6,0.8,2.3,2.3,2.3c1.5,0,2.3-0.6,2.3-1.5c0-1.3-1-1.4-3-1.9
			c-5.6-1.2-8.1-2.2-8.1-6.1c0-3.9,3-6,8.9-6c5.4,0,8.3,2,8.8,5.8h-6.4c-0.1-1.1-1-1.8-2.3-1.8c-1.3,0-1.9,0.5-1.9,1.3
			c0,1.3,1.2,1.3,3.4,1.8c5.4,1.2,7.8,2.2,7.8,6.2C174.7,129.2,171.5,131.4,165.1,131.4z"/>
		<path class="st0" d="M185.5,131c-4.4,0-6.1-1.3-6.1-5.2v-9.2h-2.5v-4.2h2.5v-5.7h7.1v5.7h3.4v4.2h-3.4v7.3c0,1.3,0.7,1.7,2.4,1.7
			c0.3,0,0.6,0,1,0v5.3C188.4,131,186.9,131,185.5,131z"/>
		<path class="st0" d="M217.6,130.7h-7l-2.6-10.6l-2.6,10.6h-7l-5.9-18.3h7.1l2.7,11.2l2.8-11.2h6l2.8,11.2l2.7-11.2h6.8
			L217.6,130.7z"/>
		<path class="st0" d="M234.1,131.4c-6.3,0-10.2-3.8-10.2-9.8c0-6.1,3.8-9.8,10.2-9.8c6.3,0,10.2,3.7,10.2,9.8
			C244.3,127.6,240.4,131.4,234.1,131.4z M234.1,116.8c-2.2,0-3,1.5-3,4.7c0,3.2,0.8,4.8,3,4.8c2.2,0,3-1.5,3-4.8
			C237.1,118.3,236.3,116.8,234.1,116.8z"/>
		<path d="M21.6,173l-8.1-13.4l-2.6,2.7V173H0.5v-33.5H11v11.1l9.5-11.1h12.3l-11.8,12.3L34.2,173H21.6z"/>
		<path d="M52.9,173v-3.6c-2.2,2.9-5,4.3-8.5,4.3c-3,0-5.3-1-6.9-3c-1.9-2.3-2-5.3-2-9.6v-12.8h9.7V161c0,3.4,0.6,5,3.3,5
			c2.4,0,3.6-1.7,3.6-5v-12.7h9.7V173H52.9z"/>
		<path d="M67.9,173v-33.5h9.8V173H67.9z"/>
		<path d="M93.6,173.4c-6,0-8.2-1.7-8.2-7.1v-12.4h-3.4v-5.7h3.4v-7.6H95v7.6h4.5v5.7H95v9.9c0,1.8,0.9,2.3,3.3,2.3
			c0.4,0,0.9,0,1.4,0v7.1C97.5,173.3,95.5,173.4,93.6,173.4z"/>
		<path d="M121.4,173v-3.6c-2.2,2.9-5,4.3-8.5,4.3c-3,0-5.3-1-6.9-3c-1.9-2.3-2-5.3-2-9.6v-12.8h9.7V161c0,3.4,0.6,5,3.3,5
			c2.4,0,3.6-1.7,3.6-5v-12.7h9.7V173H121.4z"/>
		<path d="M151.5,157.3c-3.9,0-5.7,1.7-5.7,5.5V173h-9.7v-24.7h8.9v4.5c1.3-3.6,3.6-5.2,7.6-5.2h0.9v9.8
			C152.8,157.3,152.1,157.3,151.5,157.3z"/>
		<path d="M175.6,172.9c-1.2,3.8-2.2,6.6-3.6,8c-1.9,1.9-4.3,2-7.6,2c-1.1,0-2.8,0-4.9-0.2v-7.3h2.7c1.8,0,2.7-0.6,2.7-2.1
			c0-0.7-0.2-1.5-0.5-2.4l-8.1-22.6h9.8l4.3,15l4.1-15h9.1L175.6,172.9z"/>
		<path class="st0" d="M0.4,188.2v-5.2h7.2v5.2H0.4z M0.4,208.4V190h7.2v18.3H0.4z"/>
		<path class="st0" d="M40.6,207.3c-2.1,1-5,1-8.7,1h-8v-24.8h9.5c3.5,0,6.2,0.1,8.4,1.4c3.4,2,5.1,5.7,5.1,11
			C46.9,201.6,44.7,205.5,40.6,207.3z M33.9,189.8h-2.2v12.3h2.1c3.9,0,5.2-1.5,5.2-6.1C39,191.5,37.6,189.8,33.9,189.8z"/>
		<path class="st0" d="M49,208.4v-4.9l8.2-8h-7.5V190h15.9v4.9l-8,8.1h8.4v5.3H49z"/>
		<path class="st0" d="M69.3,188.2v-5.2h7.2v5.2H69.3z M69.3,208.4V190h7.2v18.3H69.3z"/>
		<path class="st0" d="M87.2,200.8c0.1,2.3,1.3,3.7,3.3,3.7c1.4,0,2.3-0.6,2.7-1.5h6.9c-1,4-4.4,6.1-9.9,6.1
			c-6.2,0-10.1-3.8-10.1-9.7c0-6.1,3.9-10,10.3-10c6.4,0,10.2,4.1,10.2,11v0.4H87.2z M90.3,193.7c-1.9,0-3,1.2-3.1,3.4h6.4
			C93.4,194.9,92.3,193.7,90.3,193.7z"/>
		<path class="st0" d="M116.8,208.4v-2.2c-1.6,2-3.5,2.9-5.9,2.9c-4.5,0-7.7-3.8-7.7-9.7c0-6,3.3-9.8,7.7-9.8c2.2,0,3.9,0.8,5.3,2.5
			v-8.5h7v24.8H116.8z M113.2,195.2c-2,0-2.9,1.4-2.9,4.2c0,2.7,1.1,4.2,2.9,4.2c1.8,0,3-1.5,3-4.2
			C116.2,196.5,115.2,195.2,113.2,195.2z"/>
		<path class="st0" d="M125.9,208.4v-4.9l8.2-8h-7.5V190h15.9v4.9l-8,8.1h8.4v5.3H125.9z"/>
		<path class="st0" d="M146.2,188.2v-5.2h7.2v5.2H146.2z M146.2,208.4V190h7.2v18.3H146.2z"/>
		<path class="st0" d="M166.4,209c-6.4,0-10.3-3.8-10.3-9.8c0-6.1,3.9-9.8,10.3-9.8c5.9,0,9.6,3,9.8,7.6h-7.2
			c-0.1-1.7-1-2.6-2.6-2.6c-2.1,0-3,1.5-3,4.7c0,3.2,0.9,4.8,3,4.8c1.7,0,2.6-0.9,2.8-2.7h7.2C175.9,206,172.2,209,166.4,209z"/>
		<path class="st0" d="M186.6,208.7c-4.4,0-6.1-1.3-6.1-5.2v-9.2h-2.5V190h2.5v-5.7h7.1v5.7h3.4v4.2h-3.4v7.3c0,1.3,0.7,1.7,2.4,1.7
			c0.3,0,0.6,0,1,0v5.3C189.5,208.6,188,208.7,186.6,208.7z"/>
		<path class="st0" d="M218.2,208.4h-7l-2.6-10.6l-2.6,10.6h-7L193,190h7.1l2.7,11.2l2.8-11.2h6l2.8,11.2L217,190h6.8L218.2,208.4z"
			/>
		<path class="st0" d="M237.6,208.4l-0.4-1.8c-1.8,1.7-3.9,2.4-6.5,2.4c-4.1,0-6.4-2.1-6.4-5.8c0-4.1,2.5-5.2,7.8-5.9
			c3.5-0.4,5-0.3,5-2c0-1.1-0.8-1.5-2.6-1.5c-1.5,0-2.3,0.6-2.4,1.8h-7c0.1-4.1,3.3-6.2,9.6-6.2c3.3,0,5.8,0.7,7,1.6
			c1.9,1.3,2.3,2.7,2.3,5.1v10.2c0,0.7,0.3,1.2,0.8,1.6v0.5H237.6z M237,200.2c-3.3,1.3-5.4,1-5.4,2.8c0,1,0.7,1.7,2,1.7
			c2.4,0,3.4-1.1,3.4-3.5C237,200.8,237,200.5,237,200.2z"/>
		<path class="st0" d="M16.1,242.9l-6.9-11.5c-0.4-0.6-0.9-1.8-1.4-3.6c0.2,1.2,0.2,2.4,0.2,3.4v11.6H0.6v-24.8H8l6.8,11.5
			c0.4,0.7,0.9,1.8,1.4,3.6c-0.2-1.1-0.2-2.2-0.2-3.4v-11.7h7.5v24.8H16.1z"/>
		<path class="st0" d="M40.2,242.9l-0.4-1.8c-1.8,1.7-3.9,2.4-6.5,2.4c-4.1,0-6.4-2.1-6.4-5.8c0-4.1,2.5-5.2,7.8-5.9
			c3.5-0.4,5-0.3,5-2c0-1.1-0.8-1.5-2.6-1.5c-1.5,0-2.3,0.6-2.4,1.8h-7c0.1-4.1,3.3-6.2,9.6-6.2c3.3,0,5.8,0.7,7,1.6
			c1.9,1.3,2.3,2.7,2.3,5.1v10.2c0,0.7,0.3,1.2,0.8,1.6v0.5H40.2z M39.5,234.7c-3.3,1.3-5.4,1-5.4,2.8c0,1,0.7,1.7,2,1.7
			c2.4,0,3.4-1.1,3.4-3.5C39.6,235.3,39.6,235,39.5,234.7z"/>
		<path class="st0" d="M61.9,231.2c-2.9,0-4.2,1.3-4.2,4.1v7.5h-7.2v-18.3h6.6v3.3c0.9-2.7,2.7-3.8,5.6-3.8h0.6v7.3
			C62.8,231.3,62.4,231.2,61.9,231.2z"/>
		<path class="st0" d="M75.1,243.5c-6.3,0-10.2-3.8-10.2-9.8c0-6.1,3.8-9.8,10.2-9.8c6.3,0,10.2,3.7,10.2,9.8
			C85.2,239.8,81.4,243.5,75.1,243.5z M75.1,229c-2.2,0-3,1.5-3,4.7c0,3.2,0.8,4.8,3,4.8c2.2,0,3-1.5,3-4.8
			C78.1,230.5,77.2,229,75.1,229z"/>
		<path class="st0" d="M100.8,242.9v-2.2c-1.6,2-3.5,2.9-5.9,2.9c-4.5,0-7.7-3.8-7.7-9.7c0-6,3.3-9.8,7.7-9.8c2.2,0,3.9,0.8,5.3,2.5
			v-8.5h7v24.8H100.8z M97.3,229.7c-2,0-2.9,1.4-2.9,4.2c0,2.7,1.1,4.2,2.9,4.2c1.8,0,3-1.5,3-4.2C100.2,231,99.3,229.7,97.3,229.7z
			"/>
		<path class="st0" d="M120.1,243.5c-6.3,0-10.2-3.8-10.2-9.8c0-6.1,3.8-9.8,10.2-9.8c6.3,0,10.2,3.7,10.2,9.8
			C130.2,239.8,126.4,243.5,120.1,243.5z M120.1,229c-2.2,0-3,1.5-3,4.7c0,3.2,0.8,4.8,3,4.8c2.2,0,3-1.5,3-4.8
			C123.1,230.5,122.2,229,120.1,229z"/>
		<path class="st0" d="M155.9,242.9h-7l-2.6-10.6l-2.6,10.6h-7l-5.9-18.3h7.1l2.7,11.2l2.8-11.2h6l2.8,11.2l2.7-11.2h6.8
			L155.9,242.9z"/>
		<path class="st0" d="M169.3,235.3c0.1,2.3,1.3,3.7,3.3,3.7c1.4,0,2.3-0.6,2.7-1.5h6.8c-1,4-4.4,6.1-9.9,6.1
			c-6.2,0-10.1-3.8-10.1-9.7c0-6.1,3.9-10,10.3-10c6.4,0,10.2,4.1,10.2,11v0.4H169.3z M172.5,228.2c-1.9,0-3,1.2-3.1,3.4h6.4
			C175.6,229.4,174.5,228.2,172.5,228.2z"/>
		<path class="st0" d="M194.7,250.3c-5.2,0-8.2-2-8.7-5.4h7.1c0.2,0.9,0.8,1.2,2.1,1.2c2.4,0,2.7-1,2.7-3.8v-1
			c-1.2,1.2-2.9,1.8-5,1.8c-4.8,0-8-3.7-8-9.3c0-6,3.1-9.7,7.7-9.7c2.6,0,4.5,0.9,5.9,2.9v-2.4h6.3v16.9
			C204.8,247.8,202,250.3,194.7,250.3z M194.9,229.5c-1.9,0-2.9,1.4-2.9,4.1c0,2.9,0.9,4.3,2.9,4.3c2.1,0,3-1.4,3-4.3
			C197.9,230.9,196.8,229.5,194.9,229.5z"/>
		<path class="st0" d="M217.5,243.5c-6.3,0-10.2-3.8-10.2-9.8c0-6.1,3.8-9.8,10.2-9.8c6.3,0,10.2,3.7,10.2,9.8
			C227.6,239.8,223.8,243.5,217.5,243.5z M217.5,229c-2.2,0-3,1.5-3,4.7c0,3.2,0.8,4.8,3,4.8s3-1.5,3-4.8
			C220.5,230.5,219.6,229,217.5,229z"/>
		<path class="st1" d="M232.9,231.9h11v11h-11V231.9z M228.6,242.9"/>
	</g>
	<path d="M0.9,0.8h4.6c3.7,0,6.1,2.3,6.1,5.8c0,3.5-2.3,5.8-6.1,5.8H0.9V0.8z M2.5,2.3V11h3c2.7,0,4.4-1.7,4.4-4.3
		c0-2.7-1.7-4.3-4.4-4.3H2.5z"/>
	<path d="M22.1,8.4c0,2.4-1.8,4.2-4.2,4.2c-2.4,0-4.2-1.8-4.2-4.2c0-2.4,1.8-4.2,4.2-4.2C20.2,4.2,22.1,6,22.1,8.4z M20.5,8.4
		c0-1.6-1.1-2.9-2.7-2.9c-1.6,0-2.7,1.3-2.7,2.9c0,1.6,1.1,2.9,2.7,2.9C19.4,11.3,20.5,10,20.5,8.4z"/>
	<path d="M27.3,5.7v6.7h-1.5V5.7h-2.4V4.4h2.4V3.1c0-1.7,0.9-2.7,2.9-2.7h2.3v1.3h-2.1c-1.1,0-1.5,0.5-1.5,1.5v1.1h3.1v1.3H27.3z"/>
	<path d="M32.4,0.5H34v2.3h-1.5V0.5z M32.5,4.4h1.5v8.1h-1.5V4.4z"/>
	<path d="M38.5,12.4H37V4.4h1.5v1.5c0.3-0.7,1.2-1.7,2.7-1.7c2,0,3.4,1.5,3.4,3.6v4.6h-1.5V8.1c0-1.5-0.9-2.5-2.3-2.5
		c-1.4,0-2.4,1-2.4,2.5V12.4z"/>
	<path d="M53.9,11c-0.2,0.4-1,1.6-2.9,1.6c-2.1,0-3.9-1.6-3.9-4.2c0-2.6,1.8-4.2,3.9-4.2c1.8,0,2.6,1.1,2.9,1.5V4.4h1.5v8.1h-1.5V11
		z M51.3,5.5c-1.6,0-2.7,1.2-2.7,2.9c0,1.6,1,2.9,2.7,2.9c1.6,0,2.6-1.2,2.6-2.9C53.9,6.8,52.8,5.5,51.3,5.5z"/>
	<path d="M59.9,12.4h-1.5V4.4h1.5v1.5c0.3-0.7,1.2-1.7,2.7-1.7c2,0,3.4,1.5,3.4,3.6v4.6h-1.5V8.1c0-1.5-0.9-2.5-2.3-2.5
		c-1.4,0-2.4,1-2.4,2.5V12.4z"/>
	<path d="M71.2,8.9c-1.5-0.2-2.6-0.9-2.6-2.4c0-1.4,1.3-2.3,3.3-2.3c2.7,0,3.6,1.4,3.9,2.2h-1.6c-0.2-0.2-0.8-0.9-2.3-0.9
		c-1.2,0-1.8,0.4-1.8,1c0,0.6,0.4,0.9,1.4,1c0.6,0.1,1,0.1,1.7,0.2c1.9,0.2,2.7,1.1,2.7,2.5c0,1.4-1.2,2.4-3.5,2.4
		c-2.8,0-3.8-1.7-4-2.5h1.6c0.1,0.3,0.7,1.2,2.4,1.2c1.4,0,2-0.5,2-1.1s-0.3-1-1.4-1.1L71.2,8.9z"/>
	<path d="M86.1,8.4c0,2.4-1.8,4.2-4.2,4.2c-2.4,0-4.2-1.8-4.2-4.2c0-2.4,1.8-4.2,4.2-4.2C84.3,4.2,86.1,6,86.1,8.4z M84.6,8.4
		c0-1.6-1.1-2.9-2.7-2.9s-2.7,1.3-2.7,2.9c0,1.6,1.1,2.9,2.7,2.9S84.6,10,84.6,8.4z"/>
	<path d="M94.2,6.4l-2.4,6.1h-1.2l-3.1-8.1h1.6l2.2,6l2.3-6h1.2l2.3,6l2.2-5.9h1.5l-3.1,8.1h-1.2L94.2,6.4z"/>
	<path d="M109,11c-0.2,0.4-1,1.6-2.9,1.6c-2.1,0-3.9-1.6-3.9-4.2c0-2.6,1.8-4.2,3.9-4.2c1.8,0,2.6,1.1,2.9,1.5V4.4h1.5v8.1H109V11z
		 M106.4,5.5c-1.6,0-2.7,1.2-2.7,2.9c0,1.6,1,2.9,2.7,2.9c1.6,0,2.6-1.2,2.6-2.9C109,6.8,108,5.5,106.4,5.5z"/>
	<path d="M115,12.4h-1.5V4.4h1.5v1.5c0.3-0.7,1.2-1.7,2.7-1.7c2,0,3.4,1.5,3.4,3.6v4.6h-1.5V8.1c0-1.5-0.9-2.5-2.3-2.5
		c-1.4,0-2.4,1-2.4,2.5V12.4z"/>
	<path d="M132.1,8.4c0,2.4-1.8,4.2-4.2,4.2c-2.4,0-4.2-1.8-4.2-4.2c0-2.4,1.8-4.2,4.2-4.2C130.2,4.2,132.1,6,132.1,8.4z M130.5,8.4
		c0-1.6-1.1-2.9-2.7-2.9c-1.6,0-2.7,1.3-2.7,2.9c0,1.6,1.1,2.9,2.7,2.9C129.4,11.3,130.5,10,130.5,8.4z"/>
	<path d="M146.5,12.4h-8.3v-0.9l5.4-5.9h-5.2V4.4h7.5v0.8l-5.4,5.9h6V12.4z"/>
	<path d="M156.3,8.6h-6.7c0.1,1.5,1.2,2.7,2.7,2.7c1.6,0,2.3-0.9,2.4-1.1h1.5c-0.1,0.7-1.2,2.5-3.9,2.5c-2.5,0-4.2-1.9-4.2-4.2
		c0-2.4,1.7-4.2,4.1-4.2C154.5,4.2,156.3,5.9,156.3,8.6z M149.7,7.3h5c-0.4-1.2-1.2-1.9-2.5-1.9C150.8,5.4,150,6.2,149.7,7.3z"/>
	<path d="M165.1,8.9c-1.5-0.2-2.6-0.9-2.6-2.4c0-1.4,1.3-2.3,3.3-2.3c2.7,0,3.6,1.4,3.9,2.2h-1.6c-0.2-0.2-0.8-0.9-2.3-0.9
		c-1.2,0-1.8,0.4-1.8,1c0,0.6,0.4,0.9,1.4,1c0.6,0.1,1,0.1,1.7,0.2c1.9,0.2,2.7,1.1,2.7,2.5c0,1.4-1.2,2.4-3.5,2.4
		c-2.8,0-3.8-1.7-4-2.5h1.6c0.1,0.3,0.7,1.2,2.4,1.2c1.4,0,2-0.5,2-1.1s-0.3-1-1.4-1.1L165.1,8.9z M166.8,0h1.6l-1.9,3h-1.5L166.8,0
		z"/>
	<path d="M173.7,12.4h-1.5V4.4h1.5v1.5c0.2-0.6,0.9-1.5,2.8-1.5h2v1.5h-2.1c-2.1,0-2.8,0.7-2.8,2.1V12.4z"/>
	<path d="M188.4,8.4c0,2.4-1.8,4.2-4.2,4.2c-2.4,0-4.2-1.8-4.2-4.2c0-2.4,1.8-4.2,4.2-4.2C186.5,4.2,188.4,6,188.4,8.4z M186.8,8.4
		c0-1.6-1.1-2.9-2.7-2.9c-1.6,0-2.7,1.3-2.7,2.9c0,1.6,1.1,2.9,2.7,2.9C185.7,11.3,186.8,10,186.8,8.4z"/>
	<path d="M197.2,11c-0.2,0.4-1.1,1.6-2.9,1.6c-2.2,0-4-1.6-4-4.2c0-2.7,1.8-4.2,4-4.2c1.8,0,2.7,1.1,2.9,1.5V0.4h1.5v12h-1.5V11z
		 M194.5,5.5c-1.6,0-2.7,1.2-2.7,2.9c0,1.6,1.1,2.9,2.7,2.9c1.6,0,2.7-1.2,2.7-2.9C197.2,6.8,196.1,5.5,194.5,5.5z"/>
	<path d="M203.2,8.7v3.7h-1.4v-12h1.4v7.4l4.2-3.4h2.1l-4.8,3.8l5,4.3h-2.1L203.2,8.7z"/>
	<path d="M219.2,8.4c0,2.4-1.8,4.2-4.2,4.2c-2.4,0-4.2-1.8-4.2-4.2c0-2.4,1.8-4.2,4.2-4.2C217.3,4.2,219.2,6,219.2,8.4z M217.6,8.4
		c0-1.6-1.1-2.9-2.7-2.9c-1.6,0-2.7,1.3-2.7,2.9c0,1.6,1.1,2.9,2.7,2.9C216.5,11.3,217.6,10,217.6,8.4z M215.8,0h1.6l-1.9,3H214
		L215.8,0z"/>
	<path d="M227.2,6.4l-2.4,6.1h-1.2l-3.1-8.1h1.6l2.2,6l2.3-6h1.2l2.3,6l2.2-5.9h1.5l-3.1,8.1h-1.2L227.2,6.4z"/>
	<path d="M7.4,29.8l4-9.4h2.4V32h-1.5V21.8L7.8,32.1H6.7L2.3,21.9V32H0.9V20.4h2.4L7.4,29.8z"/>
	<path d="M17.1,20.1h1.5v2.3h-1.5V20.1z M17.1,23.9h1.5V32h-1.5V23.9z"/>
	<path d="M23.2,32h-1.5v-8.1h1.5v1.5c0.3-0.7,1.2-1.7,2.7-1.7c2,0,3.4,1.5,3.4,3.6V32h-1.5v-4.4c0-1.5-0.9-2.5-2.3-2.5
		c-1.4,0-2.4,1-2.4,2.5V32z"/>
	<path d="M32.3,20.1h1.5v2.3h-1.5V20.1z M32.3,23.9h1.5V32h-1.5V23.9z"/>
	<path d="M39,28.5c-1.5-0.2-2.6-0.9-2.6-2.4c0-1.4,1.3-2.3,3.3-2.3c2.7,0,3.6,1.4,3.9,2.2H42c-0.2-0.2-0.8-0.9-2.3-0.9
		c-1.2,0-1.8,0.4-1.8,1c0,0.6,0.4,0.9,1.4,1c0.6,0.1,1,0.1,1.7,0.2c1.9,0.2,2.7,1.1,2.7,2.5c0,1.4-1.2,2.4-3.5,2.4
		c-2.8,0-3.8-1.7-4-2.5h1.6c0.1,0.3,0.7,1.2,2.4,1.2c1.4,0,2-0.5,2-1.1s-0.3-1-1.4-1.1L39,28.5z"/>
	<path d="M52.1,32h-1.9c-1.9,0-2.8-0.9-2.8-2.7v-4H45v-1.3h2.4v-3.5h1.5v3.5h3.2v1.3h-3.2V29c0,1.2,0.4,1.7,1.7,1.7h1.6V32z"/>
	<path d="M55.9,32h-1.5v-8.1h1.5v1.5c0.2-0.6,0.9-1.5,2.8-1.5h2v1.5h-2.1c-2.1,0-2.8,0.7-2.8,2.1V32z"/>
	<path d="M69,30.6c-0.2,0.4-1,1.6-2.9,1.6c-2.1,0-3.9-1.6-3.9-4.2c0-2.6,1.8-4.2,3.9-4.2c1.8,0,2.6,1.1,2.9,1.5v-1.3h1.5V32H69V30.6
		z M66.4,25.1c-1.6,0-2.7,1.2-2.7,2.9c0,1.6,1,2.9,2.7,2.9c1.6,0,2.6-1.2,2.6-2.9C69,26.4,67.9,25.1,66.4,25.1z"/>
	<path d="M79.7,26.6V32h-1.6V20.4h1.6v5.4l6.7-5.4h2.2l-7.1,5.7l7.4,5.9h-2.3L79.7,26.6z"/>
	<path d="M90.1,28.6v-4.6h1.5v4.4c0,1.5,0.8,2.5,2.3,2.5c1.5,0,2.3-1,2.3-2.5v-4.4h1.5v4.6c0,2.1-1.5,3.6-3.8,3.6
		C91.6,32.2,90.1,30.7,90.1,28.6z"/>
	<path d="M100.7,20h1.5v12h-1.5V20z"/>
	<path d="M111.3,32h-1.9c-1.9,0-2.8-0.9-2.8-2.7v-4h-2.4v-1.3h2.4v-3.5h1.5v3.5h3.2v1.3h-3.2V29c0,1.2,0.4,1.7,1.7,1.7h1.6V32z"/>
	<path d="M113.6,28.6v-4.6h1.5v4.4c0,1.5,0.8,2.5,2.3,2.5c1.5,0,2.3-1,2.3-2.5v-4.4h1.5v4.6c0,2.1-1.5,3.6-3.8,3.6
		C115.1,32.2,113.6,30.7,113.6,28.6z"/>
	<path d="M125.6,32h-1.5v-8.1h1.5v1.5c0.2-0.6,0.9-1.5,2.8-1.5h2v1.5h-2.1c-2.1,0-2.8,0.7-2.8,2.1V32z"/>
	<path d="M134.8,35.7h-1.5l1.7-3.8l-3.7-7.9h1.7l2.8,6.1l2.8-6.1h1.5L134.8,35.7z"/>
	<path d="M146.3,20.1h1.5v2.3h-1.5V20.1z M146.3,23.9h1.5V32h-1.5V23.9z"/>
	<path d="M155.5,20.4h4.6c3.7,0,6.1,2.3,6.1,5.8c0,3.5-2.3,5.8-6.1,5.8h-4.6V20.4z M157.1,21.9v8.7h3c2.7,0,4.4-1.7,4.4-4.3
		c0-2.7-1.7-4.3-4.4-4.3H157.1z"/>
	<path d="M176.4,32h-8.3v-0.9l5.4-5.9h-5.2v-1.3h7.5v0.8l-5.4,5.9h6V32z"/>
	<path d="M178.7,20.1h1.5v2.3h-1.5V20.1z M178.7,23.9h1.5V32h-1.5V23.9z"/>
	<path d="M190.9,28.2h-6.7c0.1,1.5,1.2,2.7,2.7,2.7c1.6,0,2.3-0.9,2.4-1.1h1.5c-0.1,0.7-1.2,2.5-3.9,2.5c-2.5,0-4.2-1.9-4.2-4.2
		c0-2.4,1.7-4.2,4.1-4.2C189.1,23.8,190.9,25.5,190.9,28.2z M184.3,26.9h5c-0.4-1.2-1.2-1.9-2.5-1.9C185.5,25,184.6,25.7,184.3,26.9
		z"/>
	<path d="M199.6,30.6c-0.2,0.4-1.1,1.6-2.9,1.6c-2.2,0-4-1.6-4-4.2c0-2.7,1.8-4.2,4-4.2c1.8,0,2.7,1.1,2.9,1.5V20h1.5v12h-1.5V30.6z
		 M196.9,25.1c-1.6,0-2.7,1.2-2.7,2.9c0,1.6,1.1,2.9,2.7,2.9c1.6,0,2.7-1.2,2.7-2.9C199.6,26.3,198.5,25.1,196.9,25.1z"/>
	<path d="M211.8,32h-8.3v-0.9l5.4-5.9h-5.2v-1.3h7.5v0.8l-5.4,5.9h6V32z"/>
	<path d="M214,20.1h1.5v2.3H214V20.1z M214,23.9h1.5V32H214V23.9z"/>
	<path d="M222.1,25.1c-1.5,0-2.5,1.3-2.5,2.9c0,1.6,1.1,2.9,2.6,2.9c1.6,0,2.2-1.1,2.4-1.3h1.5c-0.1,0.6-0.9,2.7-3.8,2.7
		c-2.3,0-4.1-1.8-4.1-4.2c0-2.4,1.8-4.2,4.1-4.2c2.9,0,3.7,2.1,3.8,2.7h-1.5C224.3,26.2,223.7,25.1,222.1,25.1z"/>
	<path d="M234.4,32h-1.9c-1.9,0-2.8-0.9-2.8-2.7v-4h-2.4v-1.3h2.4v-3.5h1.5v3.5h3.2v1.3h-3.2V29c0,1.2,0.4,1.7,1.7,1.7h1.6V32z"/>
	<path d="M242.3,26l-2.4,6.1h-1.2l-3.1-8.1h1.6l2.2,6l2.3-6h1.2l2.3,6l2.2-5.9h1.5l-3.1,8.1h-1.2L242.3,26z"/>
	<path d="M257.1,30.6c-0.2,0.4-1,1.6-2.9,1.6c-2.1,0-3.9-1.6-3.9-4.2c0-2.6,1.8-4.2,3.9-4.2c1.8,0,2.6,1.1,2.9,1.5v-1.3h1.5V32h-1.5
		V30.6z M254.5,25.1c-1.6,0-2.7,1.2-2.7,2.9c0,1.6,1,2.9,2.7,2.9c1.6,0,2.6-1.2,2.6-2.9C257.1,26.4,256.1,25.1,254.5,25.1z"/>
	<path d="M11.3,51.7h-1.1l-7.8-9.8v9.7H0.9V40h1.9l7,8.9V40h1.5V51.7z"/>
	<path d="M20.8,50.2c-0.2,0.4-1,1.6-2.9,1.6c-2.1,0-3.9-1.6-3.9-4.2c0-2.6,1.8-4.2,3.9-4.2c1.8,0,2.6,1.1,2.9,1.5v-1.3h1.5v8.1h-1.5
		V50.2z M18.3,44.7c-1.6,0-2.7,1.2-2.7,2.9c0,1.6,1,2.9,2.7,2.9c1.6,0,2.6-1.2,2.6-2.9C20.9,45.9,19.8,44.7,18.3,44.7z"/>
	<path d="M26.9,51.6h-1.5v-8.1h1.5V45c0.2-0.6,0.9-1.5,2.8-1.5h2v1.5h-2.1c-2.1,0-2.8,0.7-2.8,2.1V51.6z"/>
	<path d="M41.6,47.6c0,2.4-1.8,4.2-4.2,4.2c-2.4,0-4.2-1.8-4.2-4.2c0-2.4,1.8-4.2,4.2-4.2C39.7,43.3,41.6,45.2,41.6,47.6z
		 M40.1,47.6c0-1.6-1.1-2.9-2.7-2.9c-1.6,0-2.7,1.3-2.7,2.9c0,1.6,1.1,2.9,2.7,2.9C39,50.4,40.1,49.2,40.1,47.6z"/>
	<path d="M50.4,50.2c-0.2,0.4-1.1,1.6-2.9,1.6c-2.2,0-4-1.6-4-4.2c0-2.7,1.8-4.2,4-4.2c1.8,0,2.7,1.1,2.9,1.5v-5.3h1.5v12h-1.5V50.2
		z M47.7,44.7c-1.6,0-2.7,1.2-2.7,2.9c0,1.6,1.1,2.9,2.7,2.9c1.6,0,2.7-1.2,2.7-2.9C50.4,45.9,49.3,44.7,47.7,44.7z"/>
	<path d="M62.8,47.6c0,2.4-1.8,4.2-4.2,4.2c-2.4,0-4.2-1.8-4.2-4.2c0-2.4,1.8-4.2,4.2-4.2C61,43.3,62.8,45.2,62.8,47.6z M61.3,47.6
		c0-1.6-1.1-2.9-2.7-2.9c-1.6,0-2.7,1.3-2.7,2.9c0,1.6,1.1,2.9,2.7,2.9C60.2,50.4,61.3,49.2,61.3,47.6z"/>
	<path d="M70.9,45.6l-2.4,6.1h-1.2l-3.1-8.1h1.6l2.2,6l2.3-6h1.2l2.3,6l2.2-5.9h1.5l-3.1,8.1h-1.2L70.9,45.6z"/>
	<path d="M87.1,47.7h-6.7c0.1,1.5,1.2,2.7,2.7,2.7c1.6,0,2.3-0.9,2.4-1.1H87c-0.1,0.7-1.2,2.5-3.9,2.5c-2.5,0-4.2-1.9-4.2-4.2
		c0-2.4,1.7-4.2,4.1-4.2C85.3,43.3,87.1,45.1,87.1,47.7z M80.5,46.5h5c-0.4-1.2-1.2-1.9-2.5-1.9C81.6,44.6,80.8,45.3,80.5,46.5z"/>
	<path d="M95.8,50.2c-0.2,0.4-1.1,1.6-2.9,1.6c-2.2,0-4-1.6-4-4.2c0-2.7,1.8-4.2,4-4.2c1.8,0,2.7,1.1,2.9,1.5v-1.4h1.5v8.1
		c0,2.3-1.5,3.8-4.2,3.8c-3.1,0-4-2-4.1-2.5h1.6c0.1,0.2,0.7,1.2,2.5,1.2c1.8,0,2.7-0.9,2.7-2.5V50.2z M93.1,44.7
		c-1.6,0-2.7,1.2-2.7,2.9c0,1.6,1.1,2.9,2.7,2.9c1.6,0,2.7-1.3,2.7-2.9C95.8,45.9,94.7,44.7,93.1,44.7z"/>
	<path d="M108.2,47.6c0,2.4-1.8,4.2-4.2,4.2c-2.4,0-4.2-1.8-4.2-4.2c0-2.4,1.8-4.2,4.2-4.2C106.4,43.3,108.2,45.2,108.2,47.6z
		 M106.7,47.6c0-1.6-1.1-2.9-2.7-2.9c-1.6,0-2.7,1.3-2.7,2.9c0,1.6,1.1,2.9,2.7,2.9C105.6,50.4,106.7,49.2,106.7,47.6z"/>
	<path d="M116.5,55.2H115V43.5h1.5v1.4c0.2-0.4,1.1-1.6,2.9-1.6c2.2,0,4,1.6,4,4.2c0,2.7-1.8,4.2-4,4.2c-1.8,0-2.8-1.1-2.9-1.5V55.2
		z M119.1,50.4c1.6,0,2.7-1.2,2.7-2.9c0-1.6-1.1-2.9-2.7-2.9c-1.6,0-2.7,1.2-2.7,2.9C116.4,49.2,117.5,50.4,119.1,50.4z"/>
	<path d="M133.7,47.6c0,2.4-1.8,4.2-4.2,4.2c-2.4,0-4.2-1.8-4.2-4.2c0-2.4,1.8-4.2,4.2-4.2C131.9,43.3,133.7,45.2,133.7,47.6z
		 M132.2,47.6c0-1.6-1.1-2.9-2.7-2.9c-1.6,0-2.7,1.3-2.7,2.9c0,1.6,1.1,2.9,2.7,2.9C131.1,50.4,132.2,49.2,132.2,47.6z"/>
	<path d="M139.7,44.7c-1.5,0-2.5,1.3-2.5,2.9c0,1.6,1.1,2.9,2.6,2.9c1.6,0,2.2-1.1,2.4-1.3h1.5c-0.1,0.6-0.9,2.7-3.8,2.7
		c-2.3,0-4.1-1.8-4.1-4.2c0-2.4,1.8-4.2,4.1-4.2c2.9,0,3.7,2.1,3.8,2.7H142C141.9,45.8,141.3,44.7,139.7,44.7z"/>
	<path d="M147.4,51.6h-1.5v-12h1.5V45c0.3-0.7,1.2-1.7,2.7-1.7c2,0,3.4,1.5,3.4,3.6v4.6H152v-4.4c0-1.5-0.9-2.5-2.3-2.5
		c-1.4,0-2.4,1-2.4,2.5V51.6z"/>
	<path d="M164.4,47.6c0,2.4-1.8,4.2-4.2,4.2c-2.4,0-4.2-1.8-4.2-4.2c0-2.4,1.8-4.2,4.2-4.2C162.6,43.3,164.4,45.2,164.4,47.6z
		 M162.9,47.6c0-1.6-1.1-2.9-2.7-2.9s-2.7,1.3-2.7,2.9c0,1.6,1.1,2.9,2.7,2.9S162.9,49.2,162.9,47.6z"/>
	<path d="M173.2,50.2c-0.2,0.4-1.1,1.6-2.9,1.6c-2.2,0-4-1.6-4-4.2c0-2.7,1.8-4.2,4-4.2c1.8,0,2.7,1.1,2.9,1.5v-5.3h1.5v12h-1.5
		V50.2z M170.5,44.7c-1.6,0-2.7,1.2-2.7,2.9c0,1.6,1.1,2.9,2.7,2.9c1.6,0,2.7-1.2,2.7-2.9C173.2,45.9,172.2,44.7,170.5,44.7z"/>
	<path d="M185.4,51.6h-8.3v-0.9l5.4-5.9h-5.2v-1.3h7.5v0.8l-5.4,5.9h6V51.6z"/>
	<path d="M193.8,50.2c-0.2,0.4-1,1.6-2.9,1.6c-2.1,0-3.9-1.6-3.9-4.2c0-2.6,1.8-4.2,3.9-4.2c1.8,0,2.6,1.1,2.9,1.5v-1.3h1.5v8.1
		c-1,0.8-1.6,1.3-1.6,1.8c0,0.3,0.2,0.5,0.6,0.5h1.4v1.3h-1.5c-1.3,0-2.1-0.5-2.1-1.5c0-0.9,0.8-1.5,1.7-2.1V50.2z M191.2,44.7
		c-1.6,0-2.7,1.2-2.7,2.9c0,1.6,1,2.9,2.7,2.9c1.6,0,2.6-1.2,2.6-2.9C193.8,45.9,192.7,44.7,191.2,44.7z"/>
	<path d="M201.8,44.7c-1.5,0-2.5,1.3-2.5,2.9c0,1.6,1.1,2.9,2.6,2.9c1.6,0,2.2-1.1,2.4-1.3h1.5c-0.1,0.6-0.9,2.7-3.8,2.7
		c-2.3,0-4.1-1.8-4.1-4.2c0-2.4,1.8-4.2,4.1-4.2c2.9,0,3.7,2.1,3.8,2.7h-1.5C204,45.8,203.4,44.7,201.8,44.7z"/>
	<path d="M210.3,55.2h-1.5l1.7-3.8l-3.7-7.9h1.7l2.8,6.1l2.8-6.1h1.5L210.3,55.2z"/>
	<path d="M221,44.7c-1.5,0-2.5,1.3-2.5,2.9c0,1.6,1.1,2.9,2.6,2.9c1.6,0,2.2-1.1,2.4-1.3h1.5c-0.1,0.6-0.9,2.7-3.8,2.7
		c-2.3,0-4.1-1.8-4.1-4.2c0-2.4,1.8-4.2,4.1-4.2c2.9,0,3.7,2.1,3.8,2.7h-1.5C223.2,45.8,222.6,44.7,221,44.7z"/>
	<path d="M228.7,51.6h-1.5v-12h1.5V45c0.3-0.7,1.2-1.7,2.7-1.7c2,0,3.4,1.5,3.4,3.6v4.6h-1.5v-4.4c0-1.5-0.9-2.5-2.3-2.5
		c-1.4,0-2.4,1-2.4,2.5V51.6z"/>
	<path d="M8.3,71.2H0v-0.9l5.4-5.9H0.1v-1.3h7.5v0.8l-5.4,5.9h6V71.2z"/>
	<path d="M15.1,59.6h9.4v1.5h-7.8v3.2h4.5v1.5h-4.5v5.4h-1.6V59.6z"/>
	<path d="M25.6,67.8v-4.6h1.5v4.4c0,1.5,0.8,2.5,2.3,2.5c1.5,0,2.3-1,2.3-2.5v-4.4h1.5v4.6c0,2.1-1.5,3.6-3.8,3.6
		C27.1,71.3,25.6,69.8,25.6,67.8z"/>
	<path d="M37.6,71.2h-1.5v-8.1h1.5v1.5c0.3-0.7,1.2-1.7,2.7-1.7c2,0,3.4,1.5,3.4,3.6v4.6h-1.5v-4.4c0-1.5-0.9-2.5-2.3-2.5
		c-1.4,0-2.4,1-2.4,2.5V71.2z"/>
	<path d="M53.1,69.8c-0.2,0.4-1.1,1.6-2.9,1.6c-2.2,0-4-1.6-4-4.2c0-2.7,1.8-4.2,4-4.2c1.8,0,2.7,1.1,2.9,1.5v-5.3h1.5v12h-1.5V69.8
		z M50.4,64.3c-1.6,0-2.7,1.2-2.7,2.9c0,1.6,1.1,2.9,2.7,2.9c1.6,0,2.7-1.2,2.7-2.9C53.1,65.5,52,64.3,50.4,64.3z"/>
	<path d="M57.5,67.8v-4.6H59v4.4c0,1.5,0.8,2.5,2.3,2.5c1.5,0,2.3-1,2.3-2.5v-4.4h1.5v4.6c0,2.1-1.5,3.6-3.8,3.6
		C59,71.3,57.5,69.8,57.5,67.8z"/>
	<path d="M70.2,67.6c-1.5-0.2-2.6-0.9-2.6-2.4c0-1.4,1.3-2.3,3.3-2.3c2.7,0,3.6,1.4,3.9,2.2h-1.6c-0.2-0.2-0.8-0.9-2.3-0.9
		c-1.2,0-1.8,0.4-1.8,1c0,0.6,0.4,0.9,1.4,1c0.6,0.1,1,0.1,1.7,0.2c1.9,0.2,2.7,1.1,2.7,2.5c0,1.4-1.2,2.4-3.5,2.4
		c-2.8,0-3.8-1.7-4-2.5h1.6c0.1,0.3,0.7,1.2,2.4,1.2c1.4,0,2-0.5,2-1.1c0-0.6-0.3-1-1.4-1.1L70.2,67.6z"/>
	<path d="M84.9,71.2h-8.3v-0.9l5.4-5.9h-5.2v-1.3h7.5v0.8l-5.4,5.9h6V71.2z"/>
	<path d="M87,67.8v-4.6h1.5v4.4c0,1.5,0.8,2.5,2.3,2.5c1.5,0,2.3-1,2.3-2.5v-4.4h1.5v4.6c0,2.1-1.5,3.6-3.8,3.6
		C88.5,71.3,87,69.8,87,67.8z"/>
	<path d="M102.1,59.6h6c2.6,0,3.9,1.2,3.9,3.3c0,2-1.3,3.4-3.9,3.4h-4.4v4.8h-1.6V59.6z M103.7,61.1v3.8h4.5c1.5,0,2.2-0.8,2.2-1.9
		c0-1.2-0.7-1.9-2.2-1.9H103.7z"/>
	<path d="M115.7,71.2h-1.5v-8.1h1.5v1.5c0.2-0.6,0.9-1.5,2.8-1.5h2v1.5h-2.1c-2.1,0-2.8,0.7-2.8,2.1V71.2z"/>
	<path d="M130.4,67.1c0,2.4-1.8,4.2-4.2,4.2c-2.4,0-4.2-1.8-4.2-4.2c0-2.4,1.8-4.2,4.2-4.2C128.6,62.9,130.4,64.7,130.4,67.1z
		 M128.9,67.1c0-1.6-1.1-2.9-2.7-2.9s-2.7,1.3-2.7,2.9c0,1.6,1.1,2.9,2.7,2.9S128.9,68.8,128.9,67.1z"/>
	<path d="M134.4,71.2h-1.5v-8.1h1.5v1.5c0.3-0.7,1.2-1.7,2.7-1.7c1.4,0,2.5,0.8,3,2c0.3-0.8,1.3-2,3-2c2,0,3.4,1.5,3.4,3.6v4.6h-1.5
		v-4.4c0-1.5-0.9-2.5-2.2-2.5c-1.4,0-2.3,1.1-2.3,2.5v4.4H139v-4.4c0-1.5-0.9-2.5-2.2-2.5c-1.4,0-2.3,1.1-2.3,2.5V71.2z"/>
	<path d="M157.4,67.1c0,2.4-1.8,4.2-4.2,4.2c-2.4,0-4.2-1.8-4.2-4.2c0-2.4,1.8-4.2,4.2-4.2C155.6,62.9,157.4,64.7,157.4,67.1z
		 M155.9,67.1c0-1.6-1.1-2.9-2.7-2.9c-1.6,0-2.7,1.3-2.7,2.9c0,1.6,1.1,2.9,2.7,2.9C154.8,70,155.9,68.8,155.9,67.1z"/>
	<path d="M163.4,64.3c-1.5,0-2.5,1.3-2.5,2.9c0,1.6,1.1,2.9,2.6,2.9c1.6,0,2.2-1.1,2.4-1.3h1.5c-0.1,0.6-0.9,2.7-3.8,2.7
		c-2.3,0-4.1-1.8-4.1-4.2c0-2.4,1.8-4.2,4.1-4.2c2.9,0,3.7,2.1,3.8,2.7h-1.5C165.6,65.4,165,64.3,163.4,64.3z"/>
	<path d="M171.1,72c0,1.8-0.9,2.8-2.7,2.8h-2.2v-1.4h1.9c1,0,1.5-0.5,1.5-1.6v-8.8h1.5V72z M169.6,59.2h1.5v2.3h-1.5V59.2z"/>
	<path d="M174.1,59.2h1.5v2.3h-1.5V59.2z M174.2,63.1h1.5v8.1h-1.5V63.1z"/>
	<path d="M184.9,65.8v5.4h-1.6V59.6h1.6v5.3l6.7-5.3h2.2l-7.1,5.7l7.4,5.9h-2.3L184.9,65.8z"/>
	<path d="M195.4,67.8v-4.6h1.5v4.4c0,1.5,0.8,2.5,2.3,2.5s2.3-1,2.3-2.5v-4.4h1.5v4.6c0,2.1-1.5,3.6-3.8,3.6
		C196.9,71.3,195.4,69.8,195.4,67.8z"/>
	<path d="M205.9,59.2h1.5v12h-1.5V59.2z"/>
	<path d="M216.6,71.2h-1.9c-1.9,0-2.8-0.9-2.8-2.7v-4h-2.4v-1.3h2.4v-3.5h1.5v3.5h3.2v1.3h-3.2v3.7c0,1.2,0.4,1.7,1.7,1.7h1.6V71.2z
		"/>
	<path d="M218.8,67.8v-4.6h1.5v4.4c0,1.5,0.8,2.5,2.3,2.5c1.5,0,2.3-1,2.3-2.5v-4.4h1.5v4.6c0,2.1-1.5,3.6-3.8,3.6
		C220.3,71.3,218.8,69.8,218.8,67.8z"/>
	<path d="M230.8,71.2h-1.5v-8.1h1.5v1.5c0.2-0.6,0.9-1.5,2.8-1.5h2v1.5h-2.1c-2.1,0-2.8,0.7-2.8,2.1V71.2z"/>
	<path d="M240,74.8h-1.5l1.7-3.8l-3.7-7.9h1.7l2.8,6.1l2.8-6.1h1.5L240,74.8z"/>
</g>
</svg>
