<svg xmlns="http://www.w3.org/2000/svg" xmlns:xlink="http://www.w3.org/1999/xlink" width="47.232" height="55.367" viewBox="0 0 47.232 55.367">
  <defs>
    <linearGradient id="linear-gradient" x1="1.159" y1="-0.592" x2="1.879" y2="-0.592" gradientUnits="objectBoundingBox">
      <stop offset="0"/>
      <stop offset="0.502" stop-color="#544b4b"/>
      <stop offset="1" stop-color="#544b4b"/>
    </linearGradient>
  </defs>
  <path id="path2345" d="M263-35.349h37.558l9.674,9.817V-57.049H263v21.7Zm24.549-38.769a1.016,1.016,0,0,0-1.012,1.012v6.013a4.117,4.117,0,0,0,4.118,4.1,4.129,4.129,0,0,0,4.118-4.118,4.129,4.129,0,0,0-4.118-4.118,4.075,4.075,0,0,0-2.109.584v-2.465a.994.994,0,0,0-1-1.012Zm3.106,4.887a2.1,2.1,0,0,1,2.109,2.109,2.1,2.1,0,0,1-2.109,2.109,2.1,2.1,0,0,1-2.109-2.109,2.122,2.122,0,0,1,2.109-2.109Zm6.2-1.995a1.015,1.015,0,0,0-1.012,1.012v3.434c0,1.225.171,2.921,1.653,3.676a1.026,1.026,0,0,0,1.354-.442,1.026,1.026,0,0,0-.442-1.354c-.128-.071-.541-.271-.541-1.881v-3.448a1.013,1.013,0,0,0-1.012-1Zm0-2.892a1.113,1.113,0,0,0-1.111,1.111,1.113,1.113,0,0,0,1.111,1.111,1.113,1.113,0,0,0,1.111-1.111A1.132,1.132,0,0,0,296.853-74.118Zm5.186,12.752v-2.223a4.075,4.075,0,0,0,2.109.584,4.129,4.129,0,0,0,4.118-4.118,4.129,4.129,0,0,0-4.118-4.118,4.129,4.129,0,0,0-4.118,4.118v5.756a1.015,1.015,0,0,0,1.012,1.012,1.022,1.022,0,0,0,1-1.012Zm2.109-7.865a2.1,2.1,0,0,1,2.109,2.109,2.1,2.1,0,0,1-2.109,2.109,2.1,2.1,0,0,1-2.109-2.109,2.1,2.1,0,0,1,2.109-2.109ZM263-80.9v2.052h47.232V-80.9Z" transform="translate(-263 80.9)" fill="url(#linear-gradient)"/>
</svg>
