<svg xmlns="http://www.w3.org/2000/svg" width="71.564" height="64.924" viewBox="0 0 71.564 64.924">
  <g id="Group_4" data-name="Group 4" transform="translate(-67.072 -42.224)">
    <path id="Path_1" data-name="Path 1" d="M111.283,42.232,87.649,104.5H67.126l-.053,2.525H92.8l23.67-62.176h20.364l.025-2.617Z" transform="translate(0 0.047)"/>
    <g id="Group_3" data-name="Group 3" transform="translate(68.133 42.224)">
      <g id="Group_2" data-name="Group 2">
        <g id="Group_1" data-name="Group 1">
          <path id="Path_2" data-name="Path 2" d="M87.555,53.49a6.124,6.124,0,0,0-5.889-5.963h-1.4c-2.874,0-5.525,1.918-5.525,4.489,0,7.437,18.777,4.57,18.777,17.9,0,5.889-5.815,10.6-12.222,10.6H79.674c-7.437,0-12.444-5.667-12.444-11.481v-.888h5.9v.666a6.686,6.686,0,0,0,6.77,6.407h1.326c3.385,0,6.259-2.355,6.259-5.451,0-7.807-18.925-5.3-18.925-17.3,0-6.111,5.3-10.236,11.71-10.236h1.4a11.688,11.688,0,0,1,12,11.266Z" transform="translate(-67.23 -42.224)"/>
          <path id="Path_3" data-name="Path 3" d="M102.6,70.985A13.753,13.753,0,0,1,88.605,84.532H87.354A13.768,13.768,0,0,1,73.362,70.911V59.719A13.707,13.707,0,0,1,87.354,46.171h1.252A13.753,13.753,0,0,1,102.6,59.719ZM96.56,59.5a7.969,7.969,0,0,0-8.177-7.948h-.808A8.032,8.032,0,0,0,79.332,59.5V71.281A8.092,8.092,0,0,0,87.576,79.3h.808a7.969,7.969,0,0,0,8.177-7.948Z" transform="translate(-32.094 -19.608)"/>
        </g>
      </g>
    </g>
  </g>
</svg>
