<svg xmlns="http://www.w3.org/2000/svg" width="66.525" height="65" viewBox="0 0 66.525 65">
  <g id="Group_373" data-name="Group 373" transform="translate(-201.531 -3439.449)">
    <path id="Path_50" data-name="Path 50" d="M33.263,65A33.407,33.407,0,0,1,9.748,55.475a31.949,31.949,0,0,1,0-45.951,33.789,33.789,0,0,1,47.029,0,31.949,31.949,0,0,1,0,45.951A33.342,33.342,0,0,1,33.263,65m0-59.547a27.853,27.853,0,0,0-19.608,7.925,26.681,26.681,0,0,0,.037,38.28,28.219,28.219,0,0,0,39.216,0,26.681,26.681,0,0,0,0-38.317A28.13,28.13,0,0,0,33.263,5.453" transform="translate(201.531 3439.449)" fill="#221e20"/>
    <path id="Path_51" data-name="Path 51" d="M74.253,51.721a19.309,19.309,0,0,1-.484,4.435L69.23,51.721l4.539-4.435a22.183,22.183,0,0,1,.484,4.435M38.46,35a22.475,22.475,0,0,1,4.2-2.617l9.562,9.379,9.6-9.379A23.748,23.748,0,0,1,66.03,35l-13.8,13.451ZM65.993,68.517A21.365,21.365,0,0,1,61.826,71.1l-9.6-9.343L42.664,71.1A20.314,20.314,0,0,1,38.5,68.517L52.264,55.066ZM56.8,30.709l-4.576,4.435-4.539-4.471a21.413,21.413,0,0,1,9.116.036M30.684,47.322l4.539,4.435-4.539,4.435a22.254,22.254,0,0,1-.484-4.471,24.512,24.512,0,0,1,.484-4.4M32.432,61.1l9.562-9.343-9.562-9.379a19.723,19.723,0,0,1,2.642-4.072l13.8,13.487L35.111,65.245A23.347,23.347,0,0,1,32.432,61.1M47.724,72.77l4.539-4.435L56.8,72.77a22.035,22.035,0,0,1-9.078,0m21.654-7.562L55.612,51.758l13.8-13.487a20.743,20.743,0,0,1,2.642,4.072l-9.6,9.379,9.562,9.343a20.222,20.222,0,0,1-2.642,4.144" transform="translate(182.568 3420.228)" fill="#221e20"/>
  </g>
</svg>
