<?xml version="1.0" encoding="utf-8"?>
<svg version="1.0" id="Warstwa_1" xmlns="http://www.w3.org/2000/svg" xmlns:xlink="http://www.w3.org/1999/xlink" x="0px" y="0px"
	 viewBox="0 0 1812 323" style="enable-background:new 0 0 1812 323;" width="1812" height="323" xml:space="preserve">
<style type="text/css">
	.st0{fill:none;stroke:#000000;}
</style>
<path id="Path_2012" class="st0" d="M1717.5,118.7c0-12.8,13.2-22.3,27.4-22.3h7c15.7,0,29.3,14.3,29.3,29.6h30.4
	c0-23.4-19.8-56-59.6-56h-7c-26.1,0-48.4,13.7-55.7,35.4c-8-19-26.7-32.4-57.2-32.4h-70.2v38.5c-10-24.5-34-41.5-63.1-41.5h-6.6
	c-22.2,0-41.7,9.7-54.4,25V0.5h-418.9L901.3,309.9H836l89.3-236.2h-31.5L844,213.4L793.5,73.7h-31.5l5.7,15.4
	C757.6,79.2,742.4,73,721.7,73h-70.2v28.6c-13-20.1-35.3-32.2-59.2-32H586c-28.6,0-52.8,16.3-63.5,39.8
	C515.7,89.7,496.8,70,465.8,70h-7c-29.5,0-54.3,17.7-57.8,44.5V73h-28.7v131.8h-0.9L284.8,73h-26.9v28.7C246,82.6,224.8,70,199.7,70
	h-6.6c-29,0-53.4,16.5-64,40.4c-6.6-20.1-25.5-40.4-57-40.4h-7C33.4,70,7.1,90.5,7.1,120.9c0,59.6,94,47.2,94,86
	c0,15.4-14.3,27.1-31.1,27.1h-6.6c-18.3,0-33.7-14.6-33.7-31.8v-3.3H0.5v4.4c0,28.9,24.9,57.1,61.8,57.1h8.1
	c27.3,0,52.4-17.2,59-40.6c10.6,23.9,35,40.6,63.8,40.6h6.2c24.1,0,46.4-12.8,58.5-33.6v30h28.8V124.4h0.8l87,132.2h26.6v-27.2
	c9.9,17.6,29.5,30.8,54.8,30.8h8c26.9,0,51.7-16.7,58.8-39.6c10.9,23.3,34.9,39.6,63.3,39.6h6.2c23.9,0.2,46.3-11.9,59.2-32v28.3
	h30.3V186h38.1l33,70.6H787l-37.1-75.7c14.6-5.4,32.7-20.5,33.5-49.4l44.1,119.3l-26,71.7H927l117.6-308.9h365v73.3
	c-11.4-10.6-27.4-17.2-42.8-17.2h-4.4c-31.6,0-58.3,20.3-66.7,48.3c-4.4-25.3-24-45-60.9-45h-70.2v28.6c-13-20.1-35.3-32.2-59.2-32
	h-6.2c-38.8,0-69.5,30-69.5,67.3v55.6c0,37.3,30.7,67.7,69.5,67.7h6.2c23.9,0.2,46.2-11.9,59.2-32v28.3h30.3V186h38.1l32.9,70.6
	h34.3l-37.1-75.7c13.8-5.2,24.6-16,29.8-29.7v41.8c0,37.3,31.1,67.3,69.5,67.3h5.1c15.4,0,31.5-5.1,42.8-16.5v12.8h27.4v-21.7
	c13.4,16.2,33.4,25.5,54.4,25.4h6.2c31.8,0,56.1-21.5,63.5-45v41.3h30.3V186h38.1l32.9,70.6h34.3l-37.1-75.7
	c16.5-6.2,28.7-20.4,32.2-37.7c20.3,34.8,88.3,30.7,88.3,63.7c0,15.4-14.3,27.1-31.1,27.1h-6.6c-18.3,0-33.7-14.6-33.7-31.8v-3.3
	h-29.3v4.4c0,28.9,24.9,57.1,61.8,57.1h8.1c31.8,0,60.7-23.4,60.7-52.7C1810.7,141.3,1717.5,155.6,1717.5,118.7z M37.8,118.7
	c0-12.8,13.2-22.3,27.4-22.3h7c15.7,0,29.3,14.3,29.3,29.6h23.1c-0.6,3.6-0.9,7.3-0.9,11v42.8C101.6,144.8,37.8,149.2,37.8,118.7
	L37.8,118.7z M153.3,135.8c0-21.9,17.9-39.5,41-39.5h4.4c23,0,40.2,17.6,40.2,39.5v11.7h-85.6V135.8z M235.2,200.6
	c0,14.3-13.9,33.7-37,33.7h-4c-23,0-41-17.9-41-39.9v-20.1h104.6v26.3L235.2,200.6z M463.6,233.9H457c-18.3,0-33.7-14.6-33.7-31.8
	v-3.3h-22.3v-71.6c6.5,52.4,93.6,42.3,93.6,79.7C494.7,222.2,480.4,233.9,463.6,233.9L463.6,233.9z M431.4,118.7
	c0-12.8,13.2-22.3,27.4-22.3h7c15.7,0,29.3,14.3,29.3,29.6h22.4c-0.6,3.6-0.9,7.3-0.9,11v41.7C493.8,144.9,431.4,148.9,431.4,118.7z
	 M631.8,194.8c0,22-17.6,39.5-40.6,39.5h-4c-23,0-41-17.9-41-39.9v-58.6c0-21.9,17.9-39.5,41-39.5h4c23.1,0,40.6,17.6,40.6,39.5
	V194.8z M716.7,161.8h-35V98h35.8c20.6,0,34.7,10.9,34.7,32.6C752.2,150.7,739.4,161.8,716.7,161.8L716.7,161.8z M1144.9,194.8
	c0,22-17.6,39.5-40.6,39.5h-4c-23.1,0-41-17.9-41-39.9v-58.6c0-21.9,17.9-39.5,41-39.5h4c23.1,0,40.6,17.6,40.6,39.5V194.8z
	 M1229.8,161.8h-35V98h35.8c20.6,0,34.7,10.9,34.7,32.6C1265.3,150.7,1252.5,161.8,1229.8,161.8z M1408.5,194.4
	c0,22-17.9,39.9-41,39.9h-4c-23,0-40.6-17.6-40.6-39.5v-58.9c0-21.9,17.6-39.5,40.6-39.5h4c23,0,41,17.6,41,39.5V194.4z
	 M1452.2,135.8c0-21.9,17.9-39.5,41-39.5h4.4c23,0,40.3,17.6,40.3,39.5v11.7h-85.6L1452.2,135.8z M1534.2,200.6
	c0,14.3-13.9,33.7-36.9,33.7h-4c-23,0-41-17.9-41-39.9v-20.1h109.6v26.3L1534.2,200.6z M1627,161.8h-35V98h35.8
	c20.6,0,34.7,10.9,34.7,32.6C1662.5,150.7,1649.8,161.8,1627,161.8L1627,161.8z"/>
</svg>
